<svg width="483" height="483" viewBox="0 0 45 45" fill="none" xmlns="http://www.w3.org/2000/svg">
<path d="M42.0537 11.3643C43.9278 14.6479 45 18.4485 45 22.5C45 34.9264 34.9264 45 22.5 45C18.4485 45 14.6479 43.9278 11.3643 42.0537L16.8271 36.5908C18.58 37.2972 20.4943 37.6875 22.5 37.6875C30.8878 37.6875 37.6875 30.8878 37.6875 22.5C37.6875 20.4943 37.2972 18.58 36.5908 16.8271L42.0537 11.3643ZM22.5 0C26.9899 0 31.1722 1.31594 34.6836 3.58203L29.333 8.93262C27.2791 7.89616 24.9577 7.3125 22.5 7.3125C14.1122 7.3125 7.3125 14.1122 7.3125 22.5C7.3125 24.9577 7.89616 27.2791 8.93262 29.333L3.58203 34.6836C1.31594 31.1722 0 26.9899 0 22.5C0 10.0736 10.0736 0 22.5 0Z" fill="#9A9A9A"/>
</svg>